<svg width="24" height="24" viewBox="0 0 24 24" fill="none" xmlns="http://www.w3.org/2000/svg">
<g clip-path="url(#clip0_1205_756)">
<path d="M2 12C2 6.486 6.486 2 12 2C14.227 2 16.3348 2.71648 18.0956 4.072L15.7718 7.09067C14.683 6.25257 13.3788 5.80952 12 5.80952C8.58657 5.80952 5.80952 8.58657 5.80952 12C5.80952 15.4134 8.58657 18.1905 12 18.1905C14.7492 18.1905 17.0855 16.3892 17.8907 13.9048H12V10.0952H22V12C22 17.514 17.514 22 12 22C6.486 22 2 17.514 2 12Z" fill="#0432DF"/>
</g>
<defs>
<clipPath id="clip0_1205_756">
<rect width="20" height="20" fill="white" transform="translate(2 2)"/>
</clipPath>
</defs>
</svg>
