<svg width="123" height="38" viewBox="0 0 123 38" fill="none" xmlns="http://www.w3.org/2000/svg">
<path d="M23.7104 10.6507L19.0304 27.4027H15.0704L11.9264 15.4747L8.63843 27.4027L4.70243 27.4267L0.19043 10.6507C0.19043 10.6507 2.42599 10.3118 3.79043 10.6507C8.84595 11.9063 1.53617 23.4864 6.74243 23.6587C11.9909 23.8324 5.05773 11.9319 10.1504 10.6507C11.5684 10.294 12.4777 10.289 13.8944 10.6507C18.9383 11.9383 11.9056 23.678 17.1104 23.5867C22.2934 23.4957 15.0583 11.9114 20.0864 10.6507C21.4592 10.3065 23.7104 10.6507 23.7104 10.6507Z" fill="white"/>
<path d="M24.5604 20.7067C24.5604 19.3627 24.8244 18.1707 25.3524 17.1307C25.8964 16.0907 26.6244 15.2907 27.5364 14.7307C28.4644 14.1707 29.4964 13.8907 30.6324 13.8907C31.6244 13.8907 32.4884 14.0907 33.2244 14.4907C33.9764 14.8907 34.5764 15.3947 35.0244 16.0027C35.0244 16.0027 34.6624 14.7527 35.0244 14.1067C35.6703 12.9538 38.4084 14.1067 38.4084 14.1067V27.4027H35.0244V25.4587C34.5924 26.0827 33.9924 26.6027 33.2244 27.0187C32.4724 27.4187 31.6004 27.6187 30.6084 27.6187C29.4884 27.6187 28.4644 27.3307 27.5364 26.7547C26.6244 26.1787 25.8964 25.3707 25.3524 24.3307C24.8244 23.2747 24.5604 22.0667 24.5604 20.7067ZM35.0244 20.7547C35.0244 20.7547 34.8644 19.2427 34.5444 18.6667C34.2244 18.0747 33.7924 17.6267 33.2484 17.3227C32.7044 17.0027 32.1204 16.8427 31.4964 16.8427C30.8724 16.8427 30.2964 16.9947 29.7684 17.2987C29.2404 17.6027 28.8084 18.0507 28.4724 18.6427C28.1524 19.2187 27.9924 20.7067 27.9924 20.7067C27.9924 20.7067 28.1524 22.2107 28.4724 22.8187C28.8084 23.4107 29.2404 23.8667 29.7684 24.1867C30.3124 24.5067 30.8884 24.6667 31.4964 24.6667C32.1204 24.6667 32.7044 24.5147 33.2484 24.2107C33.7924 23.8907 34.2244 23.4427 34.5444 22.8667C34.8644 22.2747 35.0244 20.7547 35.0244 20.7547Z" fill="white"/>
<path d="M46.754 24.3067C50.9479 24.3067 46.0822 15.2615 50.114 14.1067C51.4565 13.7222 53.69 14.1067 53.69 14.1067L48.77 27.4027H44.69L39.794 14.1067C39.794 14.1067 42.0431 13.7174 43.394 14.1067C47.4239 15.268 42.5601 24.3067 46.754 24.3067Z" fill="white"/>
<path d="M67.4572 20.4667C67.4572 20.9467 67.4252 21.3787 67.3612 21.7627C67.2972 22.1467 57.5612 20.8027 57.6412 21.7627C57.7212 22.7227 58.0572 23.4747 58.6492 24.0187C59.2412 24.5627 59.9692 24.8347 60.8332 24.8347C62.0812 24.8347 62.9692 24.2987 63.4972 23.2267C64.0252 22.1547 67.1212 23.2267 67.1212 23.2267C66.7372 24.5067 66.0012 25.5627 64.9132 26.3947C63.8252 27.2107 62.4892 27.6187 60.9052 27.6187C59.6252 27.6187 58.4732 27.3387 57.4492 26.7787C56.4412 26.2027 55.6492 25.3947 55.0732 24.3547C54.5132 23.3147 54.2332 22.1147 54.2332 20.7547C54.2332 19.3787 54.5132 18.1707 55.0732 17.1307C55.6332 16.0907 56.4172 15.2907 57.4252 14.7307C58.4332 14.1707 59.5932 13.8907 60.9052 13.8907C62.1692 13.8907 63.2972 14.1627 64.2892 14.7067C65.2972 15.2507 66.0732 16.0267 66.6172 17.0347C67.1772 18.0267 67.4572 19.1707 67.4572 20.4667ZM63.9772 19.5067C63.9612 18.6427 63.6492 17.9547 63.0412 17.4427C62.4332 16.9147 61.6892 16.6507 60.8092 16.6507C59.9772 16.6507 59.2732 16.9067 58.6972 17.4187C58.1372 17.9147 57.7932 18.6107 57.6652 19.5067C57.6652 19.5067 63.9932 20.3707 63.9772 19.5067Z" fill="white"/>
<path d="M74.5177 27.6187C73.4297 27.6187 72.4537 27.4267 71.5897 27.0427C70.7257 26.6427 70.0377 26.1067 69.5257 25.4347C69.0297 24.7627 68.7577 24.0187 68.7097 23.2027C68.6617 22.3867 72.0297 22.6907 72.0937 23.2027C72.1577 23.7147 72.4057 24.1387 72.8377 24.4747C73.2857 24.8107 74.4937 24.9787 74.4937 24.9787C74.4937 24.9787 75.6297 24.8507 75.9817 24.5947C76.3497 24.3387 76.5337 24.0107 76.5337 23.6107C76.5337 23.1787 75.8617 22.6507 75.8617 22.6507L73.7737 21.9307C73.7737 21.9307 71.9657 21.4427 71.3257 21.1867C70.7017 20.9307 70.1577 20.5387 69.6937 20.0107C69.2457 19.4827 69.0217 18.7707 69.0217 17.8747C69.0217 17.1387 69.2297 16.4667 69.6457 15.8587C70.0777 15.2507 70.6857 14.7707 71.4697 14.4187C72.2697 14.0667 73.2057 13.8907 74.2777 13.8907C75.8617 13.8907 77.1257 14.2907 78.0697 15.0907C79.0137 15.8747 79.5337 16.9387 79.6297 18.2827C79.7257 19.6267 76.4617 18.8107 76.4137 18.2827C76.3657 17.7547 76.1417 17.3387 75.7417 17.0347C75.3577 16.7147 74.1817 16.5547 74.1817 16.5547C74.1817 16.5547 73.1017 16.6667 72.7657 16.8907C72.4457 17.1147 72.2857 17.4267 72.2857 17.8267C72.2857 18.2747 72.5097 18.6187 72.9577 18.8587C73.4057 19.0827 75.0457 19.5547 75.0457 19.5547C75.0457 19.5547 76.7977 20.0427 77.4217 20.2987C78.0457 20.5547 78.5817 20.9547 79.0297 21.4987C79.4937 22.0267 79.7337 22.7307 79.7497 23.6107C79.7497 24.3787 79.5337 25.0667 79.1017 25.6747C78.6857 26.2827 78.0777 26.7627 77.2777 27.1147C76.4937 27.4507 75.5737 27.6187 74.5177 27.6187Z" fill="white"/>
<path d="M81.2118 19.0027C81.2118 17.2251 81.5798 15.8827 82.3158 14.5867C83.0678 13.2747 84.0838 12.2587 85.3638 11.5387C86.6598 10.8027 88.1078 10.4347 89.7078 10.4347C91.5798 10.4347 93.2198 10.9147 94.6278 11.8747C96.0358 12.8347 97.0198 14.1627 97.5798 15.8587C98.1398 17.5547 94.0998 16.6587 93.7158 15.8587C93.3318 15.0587 92.7878 14.4587 92.0838 14.0587C91.3958 13.6587 90.5958 13.4587 89.6838 13.4587C88.7078 13.4587 87.8358 13.6907 87.0678 14.1547C86.3158 14.6027 85.7238 15.2427 85.2918 16.0747C84.8758 16.9067 84.6678 19.0027 84.6678 19.0027C84.6678 19.0027 84.8758 21.0827 85.2918 21.9307C85.7238 22.7627 86.3158 23.4107 87.0678 23.8747C87.8358 24.3227 88.7078 24.5467 89.6838 24.5467C90.5958 24.5467 91.3958 24.3467 92.0838 23.9467C92.7878 23.5307 93.3318 22.9227 93.7158 22.1227C94.0998 21.3227 98.1398 20.4107 97.5798 22.1227C97.0198 23.8347 96.0358 25.1707 94.6278 26.1307C93.2358 27.0747 91.5958 27.5467 89.7078 27.5467C88.1078 27.5467 86.6598 27.1867 85.3638 26.4667C84.0838 25.7307 83.0678 24.7147 82.3158 23.4187C81.5798 22.1227 81.2118 20.7803 81.2118 19.0027Z" fill="white"/>
<path d="M105.874 27.6187C104.594 27.6187 103.442 27.3387 102.418 26.7787C101.394 26.2027 100.586 25.3947 99.9937 24.3547C99.4177 23.3147 99.1297 22.1147 99.1297 20.7547C99.1297 19.3947 99.4257 18.1947 100.018 17.1547C100.626 16.1147 101.45 15.3147 102.49 14.7547C103.53 14.1787 104.69 13.8907 105.97 13.8907C107.25 13.8907 108.41 14.1787 109.45 14.7547C110.49 15.3147 111.306 16.1147 111.898 17.1547C112.506 18.1947 112.81 19.3947 112.81 20.7547C112.81 22.1147 112.498 23.3147 111.874 24.3547C111.266 25.3947 110.434 26.2027 109.378 26.7787C108.338 27.3387 107.17 27.6187 105.874 27.6187ZM105.874 24.6907C105.874 24.6907 107.05 24.5467 107.578 24.2587C108.122 23.9547 108.554 23.5067 108.874 22.9147C109.194 22.3227 109.354 20.7547 109.354 20.7547C109.354 20.7547 109.018 18.5227 108.346 17.8507C107.69 17.1627 105.922 16.8187 105.922 16.8187C105.922 16.8187 104.154 17.1627 103.498 17.8507C102.858 18.5227 102.538 20.7547 102.538 20.7547C102.538 20.7547 102.85 22.9947 103.474 23.6827C104.114 24.3547 105.874 24.6907 105.874 24.6907Z" fill="white"/>
</svg>
