<svg width="124" height="38" viewBox="0 0 124 38" fill="none" xmlns="http://www.w3.org/2000/svg">
<path d="M23.9009 10.6507L19.2209 27.4027H15.2609L12.1169 15.4747L8.82886 27.4027L4.89286 27.4267L0.380859 10.6507C0.380859 10.6507 2.61642 10.3118 3.98086 10.6507C9.03638 11.9063 1.7266 23.4864 6.93286 23.6587C12.1814 23.8324 5.24816 11.9319 10.3409 10.6507C11.7588 10.294 12.6682 10.289 14.0849 10.6507C19.1287 11.9383 12.0961 23.678 17.3009 23.5867C22.4838 23.4957 15.2487 11.9114 20.2769 10.6507C21.6496 10.3065 23.9009 10.6507 23.9009 10.6507Z" fill="white"/>
<path d="M24.7508 20.7067C24.7508 19.3627 25.0148 18.1707 25.5428 17.1307C26.0868 16.0907 26.8148 15.2907 27.7268 14.7307C28.6548 14.1707 29.6868 13.8907 30.8228 13.8907C31.8148 13.8907 32.6788 14.0907 33.4148 14.4907C34.1668 14.8907 34.7668 15.3947 35.2148 16.0027C35.2148 16.0027 34.8529 14.7527 35.2148 14.1067C35.8608 12.9538 38.5988 14.1067 38.5988 14.1067V27.4027H35.2148V25.4587C34.7828 26.0827 34.1828 26.6027 33.4148 27.0187C32.6628 27.4187 31.7908 27.6187 30.7988 27.6187C29.6788 27.6187 28.6548 27.3307 27.7268 26.7547C26.8148 26.1787 26.0868 25.3707 25.5428 24.3307C25.0148 23.2747 24.7508 22.0667 24.7508 20.7067ZM35.2148 20.7547C35.2148 20.7547 35.0548 19.2427 34.7348 18.6667C34.4148 18.0747 33.9828 17.6267 33.4388 17.3227C32.8948 17.0027 32.3108 16.8427 31.6868 16.8427C31.0628 16.8427 30.4868 16.9947 29.9588 17.2987C29.4308 17.6027 28.9988 18.0507 28.6628 18.6427C28.3428 19.2187 28.1828 20.7067 28.1828 20.7067C28.1828 20.7067 28.3428 22.2107 28.6628 22.8187C28.9988 23.4107 29.4308 23.8667 29.9588 24.1867C30.5028 24.5067 31.0788 24.6667 31.6868 24.6667C32.3108 24.6667 32.8948 24.5147 33.4388 24.2107C33.9828 23.8907 34.4148 23.4427 34.7348 22.8667C35.0548 22.2747 35.2148 20.7547 35.2148 20.7547Z" fill="white"/>
<path d="M46.9444 24.3067C51.1383 24.3067 46.2726 15.2615 50.3044 14.1067C51.647 13.7222 53.8804 14.1067 53.8804 14.1067L48.9604 27.4027H44.8804L39.9844 14.1067C39.9844 14.1067 42.2335 13.7174 43.5844 14.1067C47.6143 15.268 42.7505 24.3067 46.9444 24.3067Z" fill="white"/>
<path d="M67.6476 20.4667C67.6476 20.9467 67.6156 21.3787 67.5516 21.7627C67.4876 22.1467 57.7516 20.8027 57.8316 21.7627C57.9116 22.7227 58.2476 23.4747 58.8396 24.0187C59.4316 24.5627 60.1596 24.8347 61.0236 24.8347C62.2716 24.8347 63.1596 24.2987 63.6876 23.2267C64.2156 22.1547 67.3116 23.2267 67.3116 23.2267C66.9276 24.5067 66.1916 25.5627 65.1036 26.3947C64.0156 27.2107 62.6796 27.6187 61.0956 27.6187C59.8156 27.6187 58.6636 27.3387 57.6396 26.7787C56.6316 26.2027 55.8396 25.3947 55.2636 24.3547C54.7036 23.3147 54.4236 22.1147 54.4236 20.7547C54.4236 19.3787 54.7036 18.1707 55.2636 17.1307C55.8236 16.0907 56.6076 15.2907 57.6156 14.7307C58.6236 14.1707 59.7836 13.8907 61.0956 13.8907C62.3596 13.8907 63.4876 14.1627 64.4796 14.7067C65.4876 15.2507 66.2636 16.0267 66.8076 17.0347C67.3676 18.0267 67.6476 19.1707 67.6476 20.4667ZM64.1676 19.5067C64.1516 18.6427 63.8396 17.9547 63.2316 17.4427C62.6236 16.9147 61.8796 16.6507 60.9996 16.6507C60.1676 16.6507 59.4636 16.9067 58.8876 17.4187C58.3276 17.9147 57.9836 18.6107 57.8556 19.5067C57.8556 19.5067 64.1836 20.3707 64.1676 19.5067Z" fill="white"/>
<path d="M74.7081 27.6187C73.6201 27.6187 72.6441 27.4267 71.7801 27.0427C70.9161 26.6427 70.2281 26.1067 69.7161 25.4347C69.2201 24.7627 68.9481 24.0187 68.9001 23.2027C68.8521 22.3867 72.2201 22.6907 72.2841 23.2027C72.3481 23.7147 72.5961 24.1387 73.0281 24.4747C73.4761 24.8107 74.6841 24.9787 74.6841 24.9787C74.6841 24.9787 75.8201 24.8507 76.1721 24.5947C76.5401 24.3387 76.7241 24.0107 76.7241 23.6107C76.7241 23.1787 76.0521 22.6507 76.0521 22.6507L73.9641 21.9307C73.9641 21.9307 72.1561 21.4427 71.5161 21.1867C70.8921 20.9307 70.3481 20.5387 69.8841 20.0107C69.4361 19.4827 69.2121 18.7707 69.2121 17.8747C69.2121 17.1387 69.4201 16.4667 69.8361 15.8587C70.2681 15.2507 70.8761 14.7707 71.6601 14.4187C72.4601 14.0667 73.3961 13.8907 74.4681 13.8907C76.0521 13.8907 77.3161 14.2907 78.2601 15.0907C79.2041 15.8747 79.7241 16.9387 79.8201 18.2827C79.9161 19.6267 76.6521 18.8107 76.6041 18.2827C76.5561 17.7547 76.3321 17.3387 75.9321 17.0347C75.5481 16.7147 74.3721 16.5547 74.3721 16.5547C74.3721 16.5547 73.2921 16.6667 72.9561 16.8907C72.6361 17.1147 72.4761 17.4267 72.4761 17.8267C72.4761 18.2747 72.7001 18.6187 73.1481 18.8587C73.5961 19.0827 75.2361 19.5547 75.2361 19.5547C75.2361 19.5547 76.9881 20.0427 77.6121 20.2987C78.2361 20.5547 78.7721 20.9547 79.2201 21.4987C79.6841 22.0267 79.9241 22.7307 79.9401 23.6107C79.9401 24.3787 79.7241 25.0667 79.2921 25.6747C78.8761 26.2827 78.2681 26.7627 77.4681 27.1147C76.6841 27.4507 75.7641 27.6187 74.7081 27.6187Z" fill="white"/>
<path d="M81.4022 19.0027C81.4022 17.2251 81.7702 15.8827 82.5062 14.5867C83.2582 13.2747 84.2742 12.2587 85.5542 11.5387C86.8502 10.8027 88.2982 10.4347 89.8982 10.4347C91.7702 10.4347 93.4102 10.9147 94.8182 11.8747C96.2262 12.8347 97.2102 14.1627 97.7702 15.8587C98.3302 17.5547 94.2902 16.6587 93.9062 15.8587C93.5222 15.0587 92.9782 14.4587 92.2742 14.0587C91.5862 13.6587 90.7862 13.4587 89.8742 13.4587C88.8982 13.4587 88.0262 13.6907 87.2582 14.1547C86.5062 14.6027 85.9142 15.2427 85.4822 16.0747C85.0662 16.9067 84.8582 19.0027 84.8582 19.0027C84.8582 19.0027 85.0662 21.0827 85.4822 21.9307C85.9142 22.7627 86.5062 23.4107 87.2582 23.8747C88.0262 24.3227 88.8982 24.5467 89.8742 24.5467C90.7862 24.5467 91.5862 24.3467 92.2742 23.9467C92.9782 23.5307 93.5222 22.9227 93.9062 22.1227C94.2902 21.3227 98.3302 20.4107 97.7702 22.1227C97.2102 23.8347 96.2262 25.1707 94.8182 26.1307C93.4262 27.0747 91.7862 27.5467 89.8982 27.5467C88.2982 27.5467 86.8502 27.1867 85.5542 26.4667C84.2742 25.7307 83.2582 24.7147 82.5062 23.4187C81.7702 22.1227 81.4022 20.7803 81.4022 19.0027Z" fill="white"/>
<path d="M106.064 27.6187C104.784 27.6187 103.632 27.3387 102.608 26.7787C101.584 26.2027 100.776 25.3947 100.184 24.3547C99.6081 23.3147 99.3201 22.1147 99.3201 20.7547C99.3201 19.3947 99.6161 18.1947 100.208 17.1547C100.816 16.1147 101.64 15.3147 102.68 14.7547C103.72 14.1787 104.88 13.8907 106.16 13.8907C107.44 13.8907 108.6 14.1787 109.64 14.7547C110.68 15.3147 111.496 16.1147 112.088 17.1547C112.696 18.1947 113 19.3947 113 20.7547C113 22.1147 112.688 23.3147 112.064 24.3547C111.456 25.3947 110.624 26.2027 109.568 26.7787C108.528 27.3387 107.36 27.6187 106.064 27.6187ZM106.064 24.6907C106.064 24.6907 107.24 24.5467 107.768 24.2587C108.312 23.9547 108.744 23.5067 109.064 22.9147C109.384 22.3227 109.544 20.7547 109.544 20.7547C109.544 20.7547 109.208 18.5227 108.536 17.8507C107.88 17.1627 106.112 16.8187 106.112 16.8187C106.112 16.8187 104.344 17.1627 103.688 17.8507C103.048 18.5227 102.728 20.7547 102.728 20.7547C102.728 20.7547 103.04 22.9947 103.664 23.6827C104.304 24.3547 106.064 24.6907 106.064 24.6907Z" fill="white"/>
</svg>
