<svg width="18" height="17" viewBox="0 0 18 17" fill="none" xmlns="http://www.w3.org/2000/svg">
<path fill-rule="evenodd" clip-rule="evenodd" d="M11.435 3.84316C13.3877 5.79578 13.3877 8.9616 11.435 10.9142C9.48241 12.8668 6.31658 12.8668 4.36396 10.9142C2.41134 8.96161 2.41134 5.79578 4.36396 3.84316C6.31658 1.89054 9.48241 1.89054 11.435 3.84316ZM13.5062 11.5712C15.5618 8.82938 15.3428 4.92254 12.8492 2.42895C10.1156 -0.304725 5.68342 -0.304725 2.94975 2.42895C0.216077 5.16262 0.216077 9.59477 2.94975 12.3284C5.44334 14.822 9.35019 15.041 12.092 12.9854L15.6777 16.5711C16.0682 16.9616 16.7014 16.9616 17.0919 16.5711C17.4824 16.1806 17.4824 15.5474 17.0919 15.1569L13.5062 11.5712Z" fill="#4F5261"/>
</svg>
