<svg width="126" height="40" viewBox="0 0 126 40" fill="none" xmlns="http://www.w3.org/2000/svg">
<rect width="126" height="40" rx="4" fill="#EEEEEE"/>
<path d="M21.2784 26H23.0341V20.9261H27.9773V19.4205H23.0341V15.875H28.4943V14.3636H21.2784V26ZM29.717 26H31.4159V17.2727H29.717V26ZM30.575 15.9261C31.1602 15.9261 31.6489 15.4716 31.6489 14.9148C31.6489 14.358 31.1602 13.8977 30.575 13.8977C29.9841 13.8977 29.5011 14.358 29.5011 14.9148C29.5011 15.4716 29.9841 15.9261 30.575 15.9261ZM32.9014 14.3636V23.9659C32.9014 25.3466 33.6116 26.0852 35.0832 26.0625C35.5378 26.0568 35.9014 25.983 36.1401 25.9091L35.8332 24.5511C35.7139 24.5852 35.5946 24.625 35.2991 24.6307C34.7537 24.6477 34.6003 24.3636 34.6003 23.6136V14.3636H32.9014ZM40.5347 17.2727H38.7449V15.1818H37.046V17.2727H35.7676V18.6364H37.046V23.7898C37.0403 25.375 38.2506 26.142 39.5915 26.1136C40.1313 26.108 40.4949 26.0057 40.6938 25.9318L40.3869 24.5284C40.2733 24.5511 40.0631 24.6023 39.7903 24.6023C39.2392 24.6023 38.7449 24.4205 38.7449 23.4375V18.6364H40.5347V17.2727ZM45.2815 26.1761C47.1849 26.1761 48.5315 25.2386 48.9179 23.8182L47.3099 23.5284C47.0031 24.3523 46.2645 24.7727 45.2986 24.7727C43.844 24.7727 42.8668 23.8295 42.8213 22.1477H49.0259V21.5455C49.0259 18.392 47.1395 17.1591 45.1622 17.1591C42.7304 17.1591 41.1281 19.0114 41.1281 21.6932C41.1281 24.4034 42.7077 26.1761 45.2815 26.1761ZM42.827 20.875C42.8952 19.6364 43.7929 18.5625 45.1736 18.5625C46.4918 18.5625 47.3554 19.5398 47.3611 20.875H42.827ZM50.1108 26H51.8097V20.6705C51.8097 19.5341 52.6903 18.7102 53.8665 18.7102C54.196 18.7102 54.4517 18.7784 54.6562 18.8807L55.2017 17.4602C54.9119 17.267 54.5369 17.142 54.0597 17.142C53.0256 17.142 52.1619 17.7216 51.8438 18.6591H51.7528V17.2727H50.1108V26Z" fill="#4C526A"/>
<path fill-rule="evenodd" clip-rule="evenodd" d="M91.8293 14H105C105.552 14 106 14.4477 106 15C106 15.5523 105.552 16 105 16H91.8293C91.4175 17.1652 90.3062 18 89 18C87.6938 18 86.5825 17.1652 86.1707 16H83C82.4477 16 82 15.5523 82 15C82 14.4477 82.4477 14 83 14H86.1707C86.5825 12.8348 87.6938 12 89 12C90.3062 12 91.4175 12.8348 91.8293 14Z" fill="#4C526A"/>
<path fill-rule="evenodd" clip-rule="evenodd" d="M96.1707 24H83C82.4477 24 82 24.4477 82 25C82 25.5523 82.4477 26 83 26H96.1707C96.5825 27.1652 97.6938 28 99 28C100.306 28 101.417 27.1652 101.829 26H105C105.552 26 106 25.5523 106 25C106 24.4477 105.552 24 105 24H101.829C101.417 22.8348 100.306 22 99 22C97.6938 22 96.5825 22.8348 96.1707 24Z" fill="#4C526A"/>
</svg>
